<mxfile host="app.diagrams.net" modified="2021-11-09T19:39:18.729Z" agent="5.0 (Windows NT 10.0; Win64; x64) AppleWebKit/537.36 (KHTML, like Gecko) Chrome/95.0.4638.69 Safari/537.36" etag="CdcCT4EHu1dlRskBIIRf" version="15.7.1" type="github">
  <diagram name="Page-1" id="5f0bae14-7c28-e335-631c-24af17079c00">
    <mxGraphModel dx="1564" dy="1722" grid="1" gridSize="10" guides="1" tooltips="1" connect="1" arrows="1" fold="1" page="1" pageScale="1" pageWidth="1100" pageHeight="850" background="none" math="0" shadow="0">
      <root>
        <mxCell id="0" />
        <mxCell id="1" parent="0" />
        <mxCell id="jPiTWc-hbB7yzJaNtvRi-1" value="APY Gateway" style="rounded=1;whiteSpace=wrap;html=1;fontSize=24;fontStyle=1;strokeWidth=3;" vertex="1" parent="1">
          <mxGeometry x="310" y="400" width="380" height="120" as="geometry" />
        </mxCell>
        <mxCell id="jPiTWc-hbB7yzJaNtvRi-2" value="&lt;h1 style=&quot;font-size: 32px&quot;&gt;COMPONENTE WEB&lt;/h1&gt;" style="rounded=0;whiteSpace=wrap;html=1;strokeWidth=4;" vertex="1" parent="1">
          <mxGeometry x="290" y="650" width="420" height="130" as="geometry" />
        </mxCell>
        <mxCell id="jPiTWc-hbB7yzJaNtvRi-5" value="&lt;h4 style=&quot;font-size: 18px&quot;&gt;VUEJ.JS&lt;/h4&gt;" style="shape=process;whiteSpace=wrap;html=1;backgroundOutline=1;fontSize=32;strokeWidth=4;" vertex="1" parent="1">
          <mxGeometry x="450" y="750" width="120" height="60" as="geometry" />
        </mxCell>
        <mxCell id="jPiTWc-hbB7yzJaNtvRi-7" value="" style="endArrow=classic;html=1;rounded=0;fontSize=18;shape=flexArrow;exitX=0.481;exitY=0;exitDx=0;exitDy=0;exitPerimeter=0;entryX=0.5;entryY=1;entryDx=0;entryDy=0;" edge="1" parent="1" source="jPiTWc-hbB7yzJaNtvRi-2" target="jPiTWc-hbB7yzJaNtvRi-1">
          <mxGeometry width="50" height="50" relative="1" as="geometry">
            <mxPoint x="480" y="640" as="sourcePoint" />
            <mxPoint x="530" y="590" as="targetPoint" />
          </mxGeometry>
        </mxCell>
        <mxCell id="jPiTWc-hbB7yzJaNtvRi-18" value="" style="shape=flexArrow;endArrow=classic;html=1;rounded=0;fontSize=17;exitX=0.794;exitY=-0.02;exitDx=0;exitDy=0;exitPerimeter=0;" edge="1" parent="1" source="jPiTWc-hbB7yzJaNtvRi-1" target="jPiTWc-hbB7yzJaNtvRi-22">
          <mxGeometry width="50" height="50" relative="1" as="geometry">
            <mxPoint x="510" y="310" as="sourcePoint" />
            <mxPoint x="617.2151057401813" y="280" as="targetPoint" />
          </mxGeometry>
        </mxCell>
        <mxCell id="jPiTWc-hbB7yzJaNtvRi-19" value="" style="shape=flexArrow;endArrow=classic;html=1;rounded=0;fontSize=17;exitX=0.25;exitY=0;exitDx=0;exitDy=0;" edge="1" parent="1" source="jPiTWc-hbB7yzJaNtvRi-1" target="jPiTWc-hbB7yzJaNtvRi-23">
          <mxGeometry width="50" height="50" relative="1" as="geometry">
            <mxPoint x="510" y="310" as="sourcePoint" />
            <mxPoint x="405" y="280" as="targetPoint" />
          </mxGeometry>
        </mxCell>
        <mxCell id="jPiTWc-hbB7yzJaNtvRi-26" style="edgeStyle=orthogonalEdgeStyle;shape=flexArrow;rounded=0;orthogonalLoop=1;jettySize=auto;html=1;fontSize=17;" edge="1" parent="1" source="jPiTWc-hbB7yzJaNtvRi-22" target="jPiTWc-hbB7yzJaNtvRi-27">
          <mxGeometry relative="1" as="geometry">
            <mxPoint x="609.9951057401813" y="180" as="targetPoint" />
          </mxGeometry>
        </mxCell>
        <mxCell id="jPiTWc-hbB7yzJaNtvRi-22" value="AUTH" style="rounded=1;whiteSpace=wrap;html=1;fontSize=17;strokeWidth=4;fontStyle=1" vertex="1" parent="1">
          <mxGeometry x="610" y="220" width="200" height="80" as="geometry" />
        </mxCell>
        <mxCell id="jPiTWc-hbB7yzJaNtvRi-25" style="edgeStyle=orthogonalEdgeStyle;shape=flexArrow;rounded=0;orthogonalLoop=1;jettySize=auto;html=1;exitX=0.5;exitY=0;exitDx=0;exitDy=0;entryX=0.5;entryY=1;entryDx=0;entryDy=0;entryPerimeter=0;fontSize=17;" edge="1" parent="1" source="jPiTWc-hbB7yzJaNtvRi-23" target="jPiTWc-hbB7yzJaNtvRi-24">
          <mxGeometry relative="1" as="geometry" />
        </mxCell>
        <mxCell id="jPiTWc-hbB7yzJaNtvRi-28" style="edgeStyle=orthogonalEdgeStyle;shape=flexArrow;rounded=0;orthogonalLoop=1;jettySize=auto;html=1;exitX=0.5;exitY=0;exitDx=0;exitDy=0;fontSize=17;" edge="1" parent="1" source="jPiTWc-hbB7yzJaNtvRi-23" target="jPiTWc-hbB7yzJaNtvRi-29">
          <mxGeometry relative="1" as="geometry">
            <mxPoint x="450" y="110" as="targetPoint" />
          </mxGeometry>
        </mxCell>
        <mxCell id="jPiTWc-hbB7yzJaNtvRi-23" value="PATIENT" style="rounded=1;whiteSpace=wrap;html=1;fontSize=17;strokeWidth=4;fontStyle=1" vertex="1" parent="1">
          <mxGeometry x="210" y="220" width="195" height="90" as="geometry" />
        </mxCell>
        <mxCell id="jPiTWc-hbB7yzJaNtvRi-24" value="PatiendDB" style="shape=cylinder3;whiteSpace=wrap;html=1;boundedLbl=1;backgroundOutline=1;size=15;fontSize=17;strokeWidth=4;fontStyle=1" vertex="1" parent="1">
          <mxGeometry x="100" y="-10" width="135" height="120" as="geometry" />
        </mxCell>
        <mxCell id="jPiTWc-hbB7yzJaNtvRi-27" value="AuthDB" style="shape=cylinder3;whiteSpace=wrap;html=1;boundedLbl=1;backgroundOutline=1;size=15;fontSize=17;strokeWidth=4;fontStyle=1" vertex="1" parent="1">
          <mxGeometry x="640" width="140" height="110" as="geometry" />
        </mxCell>
        <mxCell id="jPiTWc-hbB7yzJaNtvRi-29" value="DiseasesDB" style="shape=cylinder3;whiteSpace=wrap;html=1;boundedLbl=1;backgroundOutline=1;size=15;fontSize=17;strokeWidth=4;fontStyle=1" vertex="1" parent="1">
          <mxGeometry x="360" width="130" height="120" as="geometry" />
        </mxCell>
      </root>
    </mxGraphModel>
  </diagram>
</mxfile>
